# Blender v2.79 (sub 0) OBJ File: 'HardwareModels.blend'
# www.blender.org
mtllib Headset.mtl
o Headset_Cube.002
v 0.271903 -0.532417 1.058737
v 0.271903 0.532417 1.058737
v 0.721137 -0.532417 1.058737
v 0.721137 0.532417 1.058737
v 0.271903 -0.532417 0.943311
v 0.829100 0.532417 0.943311
v 0.271903 0.532417 0.943311
v 0.829100 -0.532417 0.943311
v 0.271903 -0.177472 1.197352
v 0.271903 0.177472 1.197352
v 0.721137 0.177472 1.197352
v 0.721137 -0.177472 1.197352
v 0.271903 0.177472 1.066814
v 0.271903 -0.177472 1.066814
v 0.829100 0.177472 1.066814
v 0.829100 -0.177472 1.066814
v -1.205911 -0.177472 0.082072
v -1.205911 0.177472 0.082072
v -1.075373 0.177472 0.082072
v -1.075373 -0.177472 0.082072
v -0.559482 -0.177472 0.991111
v -0.559482 -0.177472 0.883058
v -0.559482 0.177472 0.991111
v -0.559482 0.177472 0.883058
v 0.271903 -0.532417 -1.058737
v 0.271903 0.532417 -1.058737
v 0.721137 -0.532417 -1.058737
v 0.721137 0.532417 -1.058737
v 0.271903 -0.532417 0.000000
v 0.271903 0.532417 0.000000
v 0.829100 -0.532417 0.000000
v 0.829100 0.532417 0.000000
v 0.271903 -0.532417 -0.943311
v 0.829100 0.532417 -0.943311
v 0.271903 0.532417 -0.943311
v 0.829100 -0.532417 -0.943311
v 0.271903 -0.177472 -1.197352
v 0.271903 0.177472 -1.197352
v 0.721137 0.177472 -1.197352
v 0.721137 -0.177472 -1.197352
v 0.829100 0.177472 0.000000
v 0.829100 -0.177472 0.000000
v 0.271903 0.177472 0.000000
v 0.271903 -0.177472 0.000000
v 0.271903 0.177472 -1.066814
v 0.271903 -0.177472 -1.066814
v 0.829100 0.177472 -1.066814
v 0.829100 -0.177472 -1.066814
v -1.205911 -0.177472 -0.082072
v -1.205911 0.177472 -0.082072
v -1.075373 0.177472 -0.082072
v -1.075373 -0.177472 -0.082072
v -0.559482 -0.177472 -0.991111
v -0.559482 -0.177472 -0.883058
v -0.559482 0.177472 -0.991111
v -0.559482 0.177472 -0.883058
v -0.991792 -0.177472 -0.639712
v -0.991792 0.177472 -0.639712
v -0.926523 0.177472 -0.574443
v -0.926523 -0.177472 -0.574443
v -0.991792 -0.177472 0.639712
v -0.991792 0.177472 0.639712
v -0.926523 0.177472 0.574443
v -0.926523 -0.177472 0.574443
vn 0.7302 0.2367 0.6410
vn 0.0000 0.3638 0.9315
vn 0.0000 -1.0000 0.0000
vn 0.0000 1.0000 0.0000
vn -1.0000 0.0000 0.0000
vn 1.0000 0.0000 0.0000
vn 0.0000 -0.3638 0.9315
vn 0.0000 0.0000 1.0000
vn 0.7302 -0.2367 0.6410
vn 0.7706 0.0000 0.6373
vn -0.9335 0.0000 0.3585
vn 0.9572 0.0000 -0.2894
vn 0.2158 0.0000 -0.9764
vn -0.2408 0.0000 0.9706
vn 0.7302 0.2367 -0.6410
vn 0.0000 0.3638 -0.9315
vn 0.0000 -0.3638 -0.9315
vn 0.0000 0.0000 -1.0000
vn 0.7302 -0.2367 -0.6410
vn 0.7706 0.0000 -0.6373
vn -0.9335 0.0000 -0.3585
vn 0.9572 0.0000 0.2894
vn 0.2158 0.0000 0.9764
vn -0.2408 0.0000 -0.9706
vn 0.6436 0.0000 0.7654
vn -0.6308 0.0000 -0.7760
vn 0.6436 0.0000 -0.7654
vn -0.6308 0.0000 0.7760
usemtl None
s off
f 15//1 6//1 4//1 11//1
f 11//2 4//2 2//2 10//2
f 5//3 8//3 3//3 1//3
f 6//4 7//4 2//4 4//4
f 13//5 7//5 30//5 43//5
f 10//5 2//5 7//5 13//5
f 32//4 30//4 7//4 6//4
f 29//3 31//3 8//3 5//3
f 41//6 32//6 6//6 15//6
f 31//6 42//6 16//6 8//6
f 42//6 41//6 15//6 16//6
f 1//5 9//5 14//5 5//5
f 64//3 61//3 17//3 20//3
f 5//5 14//5 44//5 29//5
f 14//5 13//5 43//5 44//5
f 3//7 12//7 9//7 1//7
f 12//8 11//8 10//8 9//8
f 8//9 16//9 12//9 3//9
f 16//10 15//10 11//10 12//10
f 61//11 62//11 18//11 17//11
f 62//4 63//4 19//4 18//4
f 63//12 64//12 20//12 19//12
f 13//13 14//13 22//13 24//13
f 10//4 13//4 24//4 23//4
f 9//14 10//14 23//14 21//14
f 14//3 9//3 21//3 22//3
f 47//15 39//15 28//15 34//15
f 39//16 38//16 26//16 28//16
f 33//3 25//3 27//3 36//3
f 34//4 28//4 26//4 35//4
f 45//5 43//5 30//5 35//5
f 38//5 45//5 35//5 26//5
f 32//4 34//4 35//4 30//4
f 29//3 33//3 36//3 31//3
f 41//6 47//6 34//6 32//6
f 31//6 36//6 48//6 42//6
f 42//6 48//6 47//6 41//6
f 25//5 33//5 46//5 37//5
f 60//3 52//3 49//3 57//3
f 33//5 29//5 44//5 46//5
f 46//5 44//5 43//5 45//5
f 27//17 25//17 37//17 40//17
f 40//18 37//18 38//18 39//18
f 36//19 27//19 40//19 48//19
f 48//20 40//20 39//20 47//20
f 57//21 49//21 50//21 58//21
f 58//4 50//4 51//4 59//4
f 59//22 51//22 52//22 60//22
f 45//23 56//23 54//23 46//23
f 38//4 55//4 56//4 45//4
f 37//24 53//24 55//24 38//24
f 46//3 54//3 53//3 37//3
f 18//5 50//5 49//5 17//5
f 19//4 51//4 50//4 18//4
f 20//6 52//6 51//6 19//6
f 20//3 17//3 49//3 52//3
f 56//25 59//25 60//25 54//25
f 55//4 58//4 59//4 56//4
f 53//26 57//26 58//26 55//26
f 54//3 60//3 57//3 53//3
f 24//27 22//27 64//27 63//27
f 23//4 24//4 63//4 62//4
f 21//28 23//28 62//28 61//28
f 22//3 21//3 61//3 64//3
