# Blender v2.79 (sub 0) OBJ File: 'HardwareModels.blend'
# www.blender.org
mtllib Tracker.mtl
o Tracker_Cylinder
v 0.000000 -0.125000 -0.500000
v 0.000000 0.125000 -0.500000
v 0.433013 -0.125000 -0.250000
v 0.433013 0.125000 -0.250000
v 0.433013 -0.125000 0.250000
v 0.433013 0.125000 0.250000
v -0.000000 -0.125000 0.500000
v -0.000000 0.125000 0.500000
v -0.433013 -0.125000 0.250000
v -0.433013 0.125000 0.250000
v -0.433013 -0.125000 -0.250000
v -0.433013 0.125000 -0.250000
v 0.570542 0.102705 -0.188367
v 0.570542 0.291072 -0.188367
v 0.570542 0.291072 0.188367
v 0.570542 0.102705 0.188367
v -0.122141 0.102705 0.588288
v -0.122141 0.291072 0.588288
v -0.448402 0.291072 0.399921
v -0.448402 0.102705 0.399921
v -0.448402 0.102705 -0.399921
v -0.448402 0.291072 -0.399921
v -0.122141 0.291072 -0.588288
v -0.122141 0.102705 -0.588288
vn 0.5000 0.0000 -0.8660
vn 0.5000 0.0000 0.8660
vn 0.0000 1.0000 0.0000
vn -1.0000 0.0000 0.0000
vn 0.0000 -1.0000 0.0000
vn 1.0000 0.0000 0.0000
vn 0.4090 0.0000 -0.9126
vn -0.7702 0.6378 -0.0000
vn 0.4090 0.0000 0.9126
vn 0.8560 -0.5170 0.0000
vn -0.5000 0.0000 0.8660
vn 0.5858 0.0000 0.8104
vn 0.3851 0.6378 -0.6670
vn -0.9948 0.0000 -0.1021
vn -0.4280 -0.5170 0.7413
vn -0.5000 0.0000 -0.8660
vn -0.9948 0.0000 0.1021
vn 0.3851 0.6378 0.6670
vn 0.5858 0.0000 -0.8104
vn -0.4280 -0.5170 -0.7413
usemtl None
s off
f 1//1 2//1 4//1 3//1
f 5//2 6//2 8//2 7//2
f 4//3 2//3 12//3 10//3 8//3 6//3
f 9//4 10//4 12//4 11//4
f 1//5 3//5 5//5 7//5 9//5 11//5
f 13//6 14//6 15//6 16//6
f 4//7 14//7 13//7 3//7
f 6//8 15//8 14//8 4//8
f 5//9 16//9 15//9 6//9
f 3//10 13//10 16//10 5//10
f 17//11 18//11 19//11 20//11
f 8//12 18//12 17//12 7//12
f 10//13 19//13 18//13 8//13
f 9//14 20//14 19//14 10//14
f 7//15 17//15 20//15 9//15
f 21//16 22//16 23//16 24//16
f 12//17 22//17 21//17 11//17
f 2//18 23//18 22//18 12//18
f 1//19 24//19 23//19 2//19
f 11//20 21//20 24//20 1//20
